<mxfile host="Electron" modified="2024-05-13T01:47:12.926Z" agent="Mozilla/5.0 (Windows NT 10.0; Win64; x64) AppleWebKit/537.36 (KHTML, like Gecko) draw.io/24.2.5 Chrome/120.0.6099.109 Electron/28.1.0 Safari/537.36" etag="Zk7niX2eKXN6TnPT9tU3" version="24.2.5" type="device">
  <diagram name="Page-1" id="t5jwGCP0SxloQZ26RUvD">
    <mxGraphModel dx="1290" dy="629" grid="1" gridSize="10" guides="1" tooltips="1" connect="1" arrows="1" fold="1" page="1" pageScale="1" pageWidth="827" pageHeight="1169" math="0" shadow="0">
      <root>
        <mxCell id="0" />
        <mxCell id="1" parent="0" />
        <mxCell id="_TaEZDNFQUjbEq2UXu18-1" value="" style="edgeStyle=orthogonalEdgeStyle;rounded=0;orthogonalLoop=1;jettySize=auto;html=1;" parent="1" source="_TaEZDNFQUjbEq2UXu18-2" target="_TaEZDNFQUjbEq2UXu18-4" edge="1">
          <mxGeometry relative="1" as="geometry" />
        </mxCell>
        <mxCell id="_TaEZDNFQUjbEq2UXu18-2" value="Start" style="ellipse;whiteSpace=wrap;html=1;" parent="1" vertex="1">
          <mxGeometry x="64" y="50" width="96" height="40" as="geometry" />
        </mxCell>
        <mxCell id="_TaEZDNFQUjbEq2UXu18-3" value="" style="edgeStyle=orthogonalEdgeStyle;rounded=0;orthogonalLoop=1;jettySize=auto;html=1;" parent="1" source="_TaEZDNFQUjbEq2UXu18-4" target="_TaEZDNFQUjbEq2UXu18-6" edge="1">
          <mxGeometry relative="1" as="geometry" />
        </mxCell>
        <mxCell id="_TaEZDNFQUjbEq2UXu18-4" value="stage = 0&lt;br&gt;substage = 0" style="shape=parallelogram;perimeter=parallelogramPerimeter;whiteSpace=wrap;html=1;fixedSize=1;" parent="1" vertex="1">
          <mxGeometry x="52" y="140" width="120" height="40" as="geometry" />
        </mxCell>
        <mxCell id="_TaEZDNFQUjbEq2UXu18-5" value="" style="edgeStyle=orthogonalEdgeStyle;rounded=0;orthogonalLoop=1;jettySize=auto;html=1;" parent="1" source="_TaEZDNFQUjbEq2UXu18-6" target="_TaEZDNFQUjbEq2UXu18-8" edge="1">
          <mxGeometry relative="1" as="geometry" />
        </mxCell>
        <mxCell id="_TaEZDNFQUjbEq2UXu18-6" value="Get motor encoder readings&lt;br&gt;Get distance sensor readings" style="shape=parallelogram;perimeter=parallelogramPerimeter;whiteSpace=wrap;html=1;fixedSize=1;" parent="1" vertex="1">
          <mxGeometry x="17" y="220" width="191" height="60" as="geometry" />
        </mxCell>
        <mxCell id="_TaEZDNFQUjbEq2UXu18-7" value="No" style="rounded=0;html=1;jettySize=auto;orthogonalLoop=1;fontSize=11;endArrow=classic;endFill=1;endSize=8;strokeWidth=1;shadow=0;labelBackgroundColor=none;edgeStyle=orthogonalEdgeStyle;exitX=0.5;exitY=1;exitDx=0;exitDy=0;entryX=0.5;entryY=0;entryDx=0;entryDy=0;" parent="1" source="_TaEZDNFQUjbEq2UXu18-8" target="_TaEZDNFQUjbEq2UXu18-44" edge="1">
          <mxGeometry x="-0.2" y="21" relative="1" as="geometry">
            <mxPoint as="offset" />
            <mxPoint x="114" y="390" as="sourcePoint" />
            <mxPoint x="112" y="415" as="targetPoint" />
          </mxGeometry>
        </mxCell>
        <mxCell id="_TaEZDNFQUjbEq2UXu18-8" value="if&lt;br&gt;stage==0" style="rhombus;whiteSpace=wrap;html=1;shadow=0;fontFamily=Helvetica;fontSize=12;align=center;strokeWidth=1;spacing=6;spacingTop=-4;" parent="1" vertex="1">
          <mxGeometry x="62" y="307" width="100" height="80" as="geometry" />
        </mxCell>
        <mxCell id="_TaEZDNFQUjbEq2UXu18-9" value="Yes" style="edgeStyle=orthogonalEdgeStyle;rounded=0;html=1;jettySize=auto;orthogonalLoop=1;fontSize=11;endArrow=classic;endFill=1;endSize=8;strokeWidth=1;shadow=0;labelBackgroundColor=none;strokeColor=default;entryX=0;entryY=0.5;entryDx=0;entryDy=0;" parent="1" source="_TaEZDNFQUjbEq2UXu18-8" target="_TaEZDNFQUjbEq2UXu18-10" edge="1">
          <mxGeometry y="10" relative="1" as="geometry">
            <mxPoint as="offset" />
            <mxPoint x="214" y="350" as="targetPoint" />
          </mxGeometry>
        </mxCell>
        <mxCell id="2pZa1pGC5YAZMqVa8cMA-4" value="" style="edgeStyle=orthogonalEdgeStyle;rounded=0;orthogonalLoop=1;jettySize=auto;html=1;" parent="1" source="_TaEZDNFQUjbEq2UXu18-10" target="2pZa1pGC5YAZMqVa8cMA-2" edge="1">
          <mxGeometry relative="1" as="geometry" />
        </mxCell>
        <mxCell id="_TaEZDNFQUjbEq2UXu18-10" value="stop motors" style="shape=parallelogram;perimeter=parallelogramPerimeter;whiteSpace=wrap;html=1;fixedSize=1;" parent="1" vertex="1">
          <mxGeometry x="223" y="327" width="97" height="40" as="geometry" />
        </mxCell>
        <mxCell id="_TaEZDNFQUjbEq2UXu18-11" value="" style="endArrow=classic;html=1;rounded=0;strokeColor=default;entryX=1;entryY=0.5;entryDx=0;entryDy=0;exitX=1;exitY=0.5;exitDx=0;exitDy=0;" parent="1" source="2pZa1pGC5YAZMqVa8cMA-5" target="_TaEZDNFQUjbEq2UXu18-19" edge="1">
          <mxGeometry width="50" height="50" relative="1" as="geometry">
            <mxPoint x="710" y="350" as="sourcePoint" />
            <mxPoint x="453" y="290" as="targetPoint" />
            <Array as="points">
              <mxPoint x="763" y="347" />
              <mxPoint x="763" y="250" />
            </Array>
          </mxGeometry>
        </mxCell>
        <mxCell id="_TaEZDNFQUjbEq2UXu18-18" value="" style="edgeStyle=orthogonalEdgeStyle;rounded=0;orthogonalLoop=1;jettySize=auto;html=1;strokeColor=default;endArrow=classic;endFill=1;" parent="1" source="_TaEZDNFQUjbEq2UXu18-19" target="_TaEZDNFQUjbEq2UXu18-6" edge="1">
          <mxGeometry relative="1" as="geometry" />
        </mxCell>
        <mxCell id="_TaEZDNFQUjbEq2UXu18-19" value="Drive motors" style="shape=parallelogram;perimeter=parallelogramPerimeter;whiteSpace=wrap;html=1;fixedSize=1;" parent="1" vertex="1">
          <mxGeometry x="447" y="220" width="120" height="60" as="geometry" />
        </mxCell>
        <mxCell id="_TaEZDNFQUjbEq2UXu18-44" value="if&amp;nbsp;&lt;br&gt;stage==1" style="rhombus;whiteSpace=wrap;html=1;shadow=0;fontFamily=Helvetica;fontSize=12;align=center;strokeWidth=1;spacing=6;spacingTop=-4;" parent="1" vertex="1">
          <mxGeometry x="62" y="421" width="100" height="80" as="geometry" />
        </mxCell>
        <mxCell id="_TaEZDNFQUjbEq2UXu18-45" value="end" style="ellipse;whiteSpace=wrap;html=1;" parent="1" vertex="1">
          <mxGeometry x="265" y="2192" width="91" height="30" as="geometry" />
        </mxCell>
        <mxCell id="_TaEZDNFQUjbEq2UXu18-46" value="" style="endArrow=classic;html=1;rounded=0;strokeColor=default;exitX=0.5;exitY=0;exitDx=0;exitDy=0;" parent="1" edge="1" source="6SVooI-n990Ksr6fT-eq-76">
          <mxGeometry width="50" height="50" relative="1" as="geometry">
            <mxPoint x="763" y="1040" as="sourcePoint" />
            <mxPoint x="763" y="274" as="targetPoint" />
            <Array as="points">
              <mxPoint x="760" y="840" />
            </Array>
          </mxGeometry>
        </mxCell>
        <mxCell id="_TaEZDNFQUjbEq2UXu18-87" value="No" style="rounded=0;html=1;jettySize=auto;orthogonalLoop=1;fontSize=11;endArrow=classic;endFill=1;endSize=8;strokeWidth=1;shadow=0;labelBackgroundColor=none;edgeStyle=orthogonalEdgeStyle;exitX=0.5;exitY=1;exitDx=0;exitDy=0;entryX=0.5;entryY=0;entryDx=0;entryDy=0;" parent="1" source="_TaEZDNFQUjbEq2UXu18-44" target="6SVooI-n990Ksr6fT-eq-2" edge="1">
          <mxGeometry x="-0.6752" y="20" relative="1" as="geometry">
            <mxPoint as="offset" />
            <mxPoint x="112" y="531" as="sourcePoint" />
            <mxPoint x="112" y="738" as="targetPoint" />
            <Array as="points" />
          </mxGeometry>
        </mxCell>
        <mxCell id="_TaEZDNFQUjbEq2UXu18-91" value="Yes" style="edgeStyle=orthogonalEdgeStyle;rounded=0;html=1;jettySize=auto;orthogonalLoop=1;fontSize=11;endArrow=classic;endFill=1;endSize=8;strokeWidth=1;shadow=0;labelBackgroundColor=none;strokeColor=default;exitX=1;exitY=0.5;exitDx=0;exitDy=0;entryX=0;entryY=0.5;entryDx=0;entryDy=0;" parent="1" source="_TaEZDNFQUjbEq2UXu18-44" target="2pZa1pGC5YAZMqVa8cMA-9" edge="1">
          <mxGeometry x="-0.4634" y="-19" relative="1" as="geometry">
            <mxPoint as="offset" />
            <mxPoint x="200" y="441" as="targetPoint" />
            <mxPoint x="172" y="477" as="sourcePoint" />
          </mxGeometry>
        </mxCell>
        <mxCell id="2pZa1pGC5YAZMqVa8cMA-55" value="" style="edgeStyle=orthogonalEdgeStyle;rounded=0;orthogonalLoop=1;jettySize=auto;html=1;entryX=0.5;entryY=0;entryDx=0;entryDy=0;" parent="1" source="_TaEZDNFQUjbEq2UXu18-97" target="6SVooI-n990Ksr6fT-eq-41" edge="1">
          <mxGeometry relative="1" as="geometry">
            <mxPoint x="106.5" y="1320" as="targetPoint" />
          </mxGeometry>
        </mxCell>
        <mxCell id="_TaEZDNFQUjbEq2UXu18-97" value="T" style="ellipse;whiteSpace=wrap;html=1;aspect=fixed;" parent="1" vertex="1">
          <mxGeometry x="92" y="1250" width="30" height="30" as="geometry" />
        </mxCell>
        <mxCell id="2pZa1pGC5YAZMqVa8cMA-1" value="No" style="rounded=0;html=1;jettySize=auto;orthogonalLoop=1;fontSize=11;endArrow=classic;endFill=1;endSize=8;strokeWidth=1;shadow=0;labelBackgroundColor=none;edgeStyle=orthogonalEdgeStyle;exitX=0.5;exitY=1;exitDx=0;exitDy=0;" parent="1" source="2pZa1pGC5YAZMqVa8cMA-2" edge="1">
          <mxGeometry x="-0.9812" y="-22" relative="1" as="geometry">
            <mxPoint as="offset" />
            <mxPoint x="401.5" y="406" as="sourcePoint" />
            <mxPoint x="760" y="400" as="targetPoint" />
            <Array as="points">
              <mxPoint x="402" y="400" />
              <mxPoint x="640" y="400" />
            </Array>
          </mxGeometry>
        </mxCell>
        <mxCell id="2pZa1pGC5YAZMqVa8cMA-2" value="if robot &lt;br&gt;arrived?" style="rhombus;whiteSpace=wrap;html=1;shadow=0;fontFamily=Helvetica;fontSize=12;align=center;strokeWidth=1;spacing=6;spacingTop=-4;" parent="1" vertex="1">
          <mxGeometry x="352" y="307" width="100" height="80" as="geometry" />
        </mxCell>
        <mxCell id="2pZa1pGC5YAZMqVa8cMA-3" value="Yes" style="edgeStyle=orthogonalEdgeStyle;rounded=0;html=1;jettySize=auto;orthogonalLoop=1;fontSize=11;endArrow=classic;endFill=1;endSize=8;strokeWidth=1;shadow=0;labelBackgroundColor=none;strokeColor=default;entryX=0;entryY=0.5;entryDx=0;entryDy=0;" parent="1" source="2pZa1pGC5YAZMqVa8cMA-2" target="2pZa1pGC5YAZMqVa8cMA-5" edge="1">
          <mxGeometry y="10" relative="1" as="geometry">
            <mxPoint as="offset" />
            <mxPoint x="492.5" y="349" as="targetPoint" />
          </mxGeometry>
        </mxCell>
        <mxCell id="2pZa1pGC5YAZMqVa8cMA-5" value="&lt;div&gt;find inverse kinematics for pick point&lt;/div&gt;stage = 1&lt;br&gt;stop" style="shape=parallelogram;perimeter=parallelogramPerimeter;whiteSpace=wrap;html=1;fixedSize=1;" parent="1" vertex="1">
          <mxGeometry x="493" y="322" width="237" height="50" as="geometry" />
        </mxCell>
        <mxCell id="2pZa1pGC5YAZMqVa8cMA-9" value="if &lt;br&gt;motor 1 achieved&lt;br&gt;theta 1&amp;nbsp;" style="rhombus;whiteSpace=wrap;html=1;shadow=0;fontFamily=Helvetica;fontSize=12;align=center;strokeWidth=1;spacing=6;spacingTop=-4;" parent="1" vertex="1">
          <mxGeometry x="190" y="421" width="100" height="80" as="geometry" />
        </mxCell>
        <mxCell id="2pZa1pGC5YAZMqVa8cMA-10" value="No" style="rounded=0;html=1;jettySize=auto;orthogonalLoop=1;fontSize=11;endArrow=classic;endFill=1;endSize=8;strokeWidth=1;shadow=0;labelBackgroundColor=none;edgeStyle=orthogonalEdgeStyle;exitX=0.5;exitY=1;exitDx=0;exitDy=0;entryX=0.5;entryY=0;entryDx=0;entryDy=0;" parent="1" source="2pZa1pGC5YAZMqVa8cMA-9" target="2pZa1pGC5YAZMqVa8cMA-13" edge="1">
          <mxGeometry x="-0.6752" y="20" relative="1" as="geometry">
            <mxPoint as="offset" />
            <mxPoint x="240" y="531" as="sourcePoint" />
            <mxPoint x="218" y="541" as="targetPoint" />
            <Array as="points" />
          </mxGeometry>
        </mxCell>
        <mxCell id="2pZa1pGC5YAZMqVa8cMA-11" value="Yes" style="edgeStyle=orthogonalEdgeStyle;rounded=0;html=1;jettySize=auto;orthogonalLoop=1;fontSize=11;endArrow=classic;endFill=1;endSize=8;strokeWidth=1;shadow=0;labelBackgroundColor=none;strokeColor=default;exitX=1;exitY=0.5;exitDx=0;exitDy=0;entryX=0;entryY=0.5;entryDx=0;entryDy=0;" parent="1" source="2pZa1pGC5YAZMqVa8cMA-9" target="2pZa1pGC5YAZMqVa8cMA-12" edge="1">
          <mxGeometry x="-0.375" y="13" relative="1" as="geometry">
            <mxPoint as="offset" />
            <mxPoint x="328" y="441" as="targetPoint" />
            <mxPoint x="300" y="477" as="sourcePoint" />
          </mxGeometry>
        </mxCell>
        <mxCell id="2pZa1pGC5YAZMqVa8cMA-29" value="" style="edgeStyle=orthogonalEdgeStyle;rounded=0;orthogonalLoop=1;jettySize=auto;html=1;" parent="1" source="2pZa1pGC5YAZMqVa8cMA-12" target="2pZa1pGC5YAZMqVa8cMA-14" edge="1">
          <mxGeometry relative="1" as="geometry" />
        </mxCell>
        <mxCell id="2pZa1pGC5YAZMqVa8cMA-12" value="stop motor 1" style="shape=parallelogram;perimeter=parallelogramPerimeter;whiteSpace=wrap;html=1;fixedSize=1;" parent="1" vertex="1">
          <mxGeometry x="312" y="446" width="120" height="30" as="geometry" />
        </mxCell>
        <mxCell id="2pZa1pGC5YAZMqVa8cMA-13" value="turn motor 1" style="shape=parallelogram;perimeter=parallelogramPerimeter;whiteSpace=wrap;html=1;fixedSize=1;" parent="1" vertex="1">
          <mxGeometry x="180" y="528" width="120" height="30" as="geometry" />
        </mxCell>
        <mxCell id="2pZa1pGC5YAZMqVa8cMA-14" value="if &lt;br&gt;motor 2 achieved&lt;br&gt;theta 2&amp;nbsp;" style="rhombus;whiteSpace=wrap;html=1;shadow=0;fontFamily=Helvetica;fontSize=12;align=center;strokeWidth=1;spacing=6;spacingTop=-4;" parent="1" vertex="1">
          <mxGeometry x="470" y="421" width="100" height="80" as="geometry" />
        </mxCell>
        <mxCell id="2pZa1pGC5YAZMqVa8cMA-15" value="No" style="rounded=0;html=1;jettySize=auto;orthogonalLoop=1;fontSize=11;endArrow=classic;endFill=1;endSize=8;strokeWidth=1;shadow=0;labelBackgroundColor=none;edgeStyle=orthogonalEdgeStyle;exitX=0.5;exitY=1;exitDx=0;exitDy=0;entryX=0.5;entryY=0;entryDx=0;entryDy=0;" parent="1" source="2pZa1pGC5YAZMqVa8cMA-14" target="2pZa1pGC5YAZMqVa8cMA-18" edge="1">
          <mxGeometry x="-0.6752" y="20" relative="1" as="geometry">
            <mxPoint as="offset" />
            <mxPoint x="520" y="531" as="sourcePoint" />
            <mxPoint x="498" y="541" as="targetPoint" />
            <Array as="points" />
          </mxGeometry>
        </mxCell>
        <mxCell id="2pZa1pGC5YAZMqVa8cMA-16" value="Yes" style="edgeStyle=orthogonalEdgeStyle;rounded=0;html=1;jettySize=auto;orthogonalLoop=1;fontSize=11;endArrow=classic;endFill=1;endSize=8;strokeWidth=1;shadow=0;labelBackgroundColor=none;strokeColor=default;exitX=1;exitY=0.5;exitDx=0;exitDy=0;entryX=0;entryY=0.5;entryDx=0;entryDy=0;" parent="1" source="2pZa1pGC5YAZMqVa8cMA-14" target="2pZa1pGC5YAZMqVa8cMA-17" edge="1">
          <mxGeometry x="-0.375" y="13" relative="1" as="geometry">
            <mxPoint as="offset" />
            <mxPoint x="608" y="441" as="targetPoint" />
            <mxPoint x="580" y="477" as="sourcePoint" />
          </mxGeometry>
        </mxCell>
        <mxCell id="2pZa1pGC5YAZMqVa8cMA-17" value="stop motor 2" style="shape=parallelogram;perimeter=parallelogramPerimeter;whiteSpace=wrap;html=1;fixedSize=1;" parent="1" vertex="1">
          <mxGeometry x="592" y="446" width="120" height="30" as="geometry" />
        </mxCell>
        <mxCell id="2pZa1pGC5YAZMqVa8cMA-18" value="turn motor 2" style="shape=parallelogram;perimeter=parallelogramPerimeter;whiteSpace=wrap;html=1;fixedSize=1;" parent="1" vertex="1">
          <mxGeometry x="460" y="528" width="120" height="30" as="geometry" />
        </mxCell>
        <mxCell id="2pZa1pGC5YAZMqVa8cMA-19" value="if &lt;br&gt;motor 3 achieved&lt;br&gt;theta 3&amp;nbsp;" style="rhombus;whiteSpace=wrap;html=1;shadow=0;fontFamily=Helvetica;fontSize=12;align=center;strokeWidth=1;spacing=6;spacingTop=-4;" parent="1" vertex="1">
          <mxGeometry x="190" y="588" width="100" height="80" as="geometry" />
        </mxCell>
        <mxCell id="2pZa1pGC5YAZMqVa8cMA-20" value="No" style="rounded=0;html=1;jettySize=auto;orthogonalLoop=1;fontSize=11;endArrow=classic;endFill=1;endSize=8;strokeWidth=1;shadow=0;labelBackgroundColor=none;edgeStyle=orthogonalEdgeStyle;exitX=0.5;exitY=1;exitDx=0;exitDy=0;entryX=0.5;entryY=0;entryDx=0;entryDy=0;" parent="1" source="2pZa1pGC5YAZMqVa8cMA-19" target="2pZa1pGC5YAZMqVa8cMA-23" edge="1">
          <mxGeometry x="-0.6752" y="20" relative="1" as="geometry">
            <mxPoint as="offset" />
            <mxPoint x="240" y="698" as="sourcePoint" />
            <mxPoint x="218" y="708" as="targetPoint" />
            <Array as="points" />
          </mxGeometry>
        </mxCell>
        <mxCell id="2pZa1pGC5YAZMqVa8cMA-21" value="Yes" style="edgeStyle=orthogonalEdgeStyle;rounded=0;html=1;jettySize=auto;orthogonalLoop=1;fontSize=11;endArrow=classic;endFill=1;endSize=8;strokeWidth=1;shadow=0;labelBackgroundColor=none;strokeColor=default;exitX=1;exitY=0.5;exitDx=0;exitDy=0;entryX=0;entryY=0.5;entryDx=0;entryDy=0;" parent="1" source="2pZa1pGC5YAZMqVa8cMA-19" target="2pZa1pGC5YAZMqVa8cMA-22" edge="1">
          <mxGeometry x="-0.375" y="13" relative="1" as="geometry">
            <mxPoint as="offset" />
            <mxPoint x="328" y="608" as="targetPoint" />
            <mxPoint x="300" y="644" as="sourcePoint" />
          </mxGeometry>
        </mxCell>
        <mxCell id="2pZa1pGC5YAZMqVa8cMA-30" value="" style="edgeStyle=orthogonalEdgeStyle;rounded=0;orthogonalLoop=1;jettySize=auto;html=1;" parent="1" source="2pZa1pGC5YAZMqVa8cMA-22" target="2pZa1pGC5YAZMqVa8cMA-24" edge="1">
          <mxGeometry relative="1" as="geometry" />
        </mxCell>
        <mxCell id="2pZa1pGC5YAZMqVa8cMA-22" value="stop motor 3" style="shape=parallelogram;perimeter=parallelogramPerimeter;whiteSpace=wrap;html=1;fixedSize=1;" parent="1" vertex="1">
          <mxGeometry x="312" y="613" width="120" height="30" as="geometry" />
        </mxCell>
        <mxCell id="2pZa1pGC5YAZMqVa8cMA-23" value="turn motor 3" style="shape=parallelogram;perimeter=parallelogramPerimeter;whiteSpace=wrap;html=1;fixedSize=1;" parent="1" vertex="1">
          <mxGeometry x="180" y="695" width="120" height="30" as="geometry" />
        </mxCell>
        <mxCell id="2pZa1pGC5YAZMqVa8cMA-24" value="if all&lt;br&gt;motors achieved&amp;nbsp;&lt;br&gt;targets&amp;nbsp;" style="rhombus;whiteSpace=wrap;html=1;shadow=0;fontFamily=Helvetica;fontSize=12;align=center;strokeWidth=1;spacing=6;spacingTop=-4;" parent="1" vertex="1">
          <mxGeometry x="470" y="588" width="100" height="80" as="geometry" />
        </mxCell>
        <mxCell id="2pZa1pGC5YAZMqVa8cMA-26" value="Yes" style="edgeStyle=orthogonalEdgeStyle;rounded=0;html=1;jettySize=auto;orthogonalLoop=1;fontSize=11;endArrow=classic;endFill=1;endSize=8;strokeWidth=1;shadow=0;labelBackgroundColor=none;strokeColor=default;exitX=1;exitY=0.5;exitDx=0;exitDy=0;entryX=0;entryY=0.5;entryDx=0;entryDy=0;" parent="1" source="2pZa1pGC5YAZMqVa8cMA-24" target="2pZa1pGC5YAZMqVa8cMA-27" edge="1">
          <mxGeometry x="-0.375" y="13" relative="1" as="geometry">
            <mxPoint as="offset" />
            <mxPoint x="608" y="608" as="targetPoint" />
            <mxPoint x="580" y="644" as="sourcePoint" />
          </mxGeometry>
        </mxCell>
        <mxCell id="2pZa1pGC5YAZMqVa8cMA-27" value="stage = 2" style="shape=parallelogram;perimeter=parallelogramPerimeter;whiteSpace=wrap;html=1;fixedSize=1;" parent="1" vertex="1">
          <mxGeometry x="592" y="613" width="120" height="30" as="geometry" />
        </mxCell>
        <mxCell id="2pZa1pGC5YAZMqVa8cMA-31" value="" style="endArrow=classic;html=1;rounded=0;exitX=1;exitY=0.5;exitDx=0;exitDy=0;entryX=0;entryY=0.5;entryDx=0;entryDy=0;" parent="1" source="2pZa1pGC5YAZMqVa8cMA-17" target="2pZa1pGC5YAZMqVa8cMA-19" edge="1">
          <mxGeometry width="50" height="50" relative="1" as="geometry">
            <mxPoint x="480" y="698" as="sourcePoint" />
            <mxPoint x="530" y="648" as="targetPoint" />
            <Array as="points">
              <mxPoint x="730" y="461" />
              <mxPoint x="730" y="578" />
              <mxPoint x="170" y="578" />
              <mxPoint x="170" y="628" />
            </Array>
          </mxGeometry>
        </mxCell>
        <mxCell id="2pZa1pGC5YAZMqVa8cMA-32" value="" style="endArrow=classic;html=1;rounded=0;exitX=1;exitY=0.5;exitDx=0;exitDy=0;" parent="1" source="2pZa1pGC5YAZMqVa8cMA-13" edge="1">
          <mxGeometry width="50" height="50" relative="1" as="geometry">
            <mxPoint x="480" y="698" as="sourcePoint" />
            <mxPoint x="440" y="458" as="targetPoint" />
            <Array as="points">
              <mxPoint x="440" y="543" />
            </Array>
          </mxGeometry>
        </mxCell>
        <mxCell id="2pZa1pGC5YAZMqVa8cMA-33" value="" style="endArrow=classic;html=1;rounded=0;exitX=1;exitY=0.5;exitDx=0;exitDy=0;" parent="1" source="2pZa1pGC5YAZMqVa8cMA-18" edge="1">
          <mxGeometry width="50" height="50" relative="1" as="geometry">
            <mxPoint x="480" y="698" as="sourcePoint" />
            <mxPoint x="730" y="543" as="targetPoint" />
          </mxGeometry>
        </mxCell>
        <mxCell id="2pZa1pGC5YAZMqVa8cMA-34" value="" style="endArrow=classic;html=1;rounded=0;exitX=1;exitY=0.5;exitDx=0;exitDy=0;" parent="1" source="2pZa1pGC5YAZMqVa8cMA-23" edge="1">
          <mxGeometry width="50" height="50" relative="1" as="geometry">
            <mxPoint x="480" y="698" as="sourcePoint" />
            <mxPoint x="440" y="628" as="targetPoint" />
            <Array as="points">
              <mxPoint x="440" y="708" />
            </Array>
          </mxGeometry>
        </mxCell>
        <mxCell id="2pZa1pGC5YAZMqVa8cMA-35" value="" style="endArrow=classic;html=1;rounded=0;exitX=1;exitY=0.5;exitDx=0;exitDy=0;" parent="1" source="2pZa1pGC5YAZMqVa8cMA-27" edge="1">
          <mxGeometry width="50" height="50" relative="1" as="geometry">
            <mxPoint x="480" y="698" as="sourcePoint" />
            <mxPoint x="760" y="628" as="targetPoint" />
          </mxGeometry>
        </mxCell>
        <mxCell id="2pZa1pGC5YAZMqVa8cMA-36" value="No" style="rounded=0;html=1;jettySize=auto;orthogonalLoop=1;fontSize=11;endArrow=classic;endFill=1;endSize=8;strokeWidth=1;shadow=0;labelBackgroundColor=none;edgeStyle=orthogonalEdgeStyle;exitX=0.5;exitY=1;exitDx=0;exitDy=0;" parent="1" source="2pZa1pGC5YAZMqVa8cMA-24" edge="1">
          <mxGeometry x="-0.9812" y="-22" relative="1" as="geometry">
            <mxPoint as="offset" />
            <mxPoint x="500" y="695" as="sourcePoint" />
            <mxPoint x="760" y="708" as="targetPoint" />
            <Array as="points">
              <mxPoint x="520" y="708" />
              <mxPoint x="738" y="708" />
            </Array>
          </mxGeometry>
        </mxCell>
        <mxCell id="2pZa1pGC5YAZMqVa8cMA-38" value="Yes" style="rounded=0;html=1;jettySize=auto;orthogonalLoop=1;fontSize=11;endArrow=classic;endFill=1;endSize=8;strokeWidth=1;shadow=0;labelBackgroundColor=none;edgeStyle=orthogonalEdgeStyle;exitX=0.5;exitY=1;exitDx=0;exitDy=0;entryX=0.5;entryY=0;entryDx=0;entryDy=0;" parent="1" source="6SVooI-n990Ksr6fT-eq-106" edge="1">
          <mxGeometry x="-0.3333" y="18" relative="1" as="geometry">
            <mxPoint as="offset" />
            <mxPoint x="107" y="2162" as="sourcePoint" />
            <mxPoint x="107" y="2192" as="targetPoint" />
            <Array as="points" />
          </mxGeometry>
        </mxCell>
        <mxCell id="2pZa1pGC5YAZMqVa8cMA-41" value="" style="edgeStyle=orthogonalEdgeStyle;rounded=0;orthogonalLoop=1;jettySize=auto;html=1;" parent="1" target="_TaEZDNFQUjbEq2UXu18-45" edge="1">
          <mxGeometry relative="1" as="geometry">
            <mxPoint x="157" y="2207" as="sourcePoint" />
          </mxGeometry>
        </mxCell>
        <mxCell id="2pZa1pGC5YAZMqVa8cMA-40" value="stop motors" style="shape=parallelogram;perimeter=parallelogramPerimeter;whiteSpace=wrap;html=1;fixedSize=1;" parent="1" vertex="1">
          <mxGeometry x="46" y="2192" width="120" height="30" as="geometry" />
        </mxCell>
        <mxCell id="2pZa1pGC5YAZMqVa8cMA-78" value="U" style="ellipse;whiteSpace=wrap;html=1;aspect=fixed;" parent="1" vertex="1">
          <mxGeometry x="743.5" y="1250" width="30" height="30" as="geometry" />
        </mxCell>
        <mxCell id="2pZa1pGC5YAZMqVa8cMA-79" value="" style="endArrow=classic;html=1;rounded=0;entryX=0.5;entryY=1;entryDx=0;entryDy=0;" parent="1" target="2pZa1pGC5YAZMqVa8cMA-78" edge="1">
          <mxGeometry width="50" height="50" relative="1" as="geometry">
            <mxPoint x="340" y="2115" as="sourcePoint" />
            <mxPoint x="699.5" y="1460" as="targetPoint" />
            <Array as="points">
              <mxPoint x="758.5" y="2115" />
            </Array>
          </mxGeometry>
        </mxCell>
        <mxCell id="6SVooI-n990Ksr6fT-eq-2" value="if&amp;nbsp;&lt;br&gt;stage==2" style="rhombus;whiteSpace=wrap;html=1;shadow=0;fontFamily=Helvetica;fontSize=12;align=center;strokeWidth=1;spacing=6;spacingTop=-4;" vertex="1" parent="1">
          <mxGeometry x="62" y="739" width="100" height="80" as="geometry" />
        </mxCell>
        <mxCell id="6SVooI-n990Ksr6fT-eq-3" value="&lt;div&gt;find inverse kinematics for drop point&lt;/div&gt;stage = 3&lt;br&gt;stop&lt;div&gt;pick the package&lt;/div&gt;" style="shape=parallelogram;perimeter=parallelogramPerimeter;whiteSpace=wrap;html=1;fixedSize=1;" vertex="1" parent="1">
          <mxGeometry x="308" y="746" width="323.5" height="66" as="geometry" />
        </mxCell>
        <mxCell id="6SVooI-n990Ksr6fT-eq-4" value="Yes" style="edgeStyle=orthogonalEdgeStyle;rounded=0;html=1;jettySize=auto;orthogonalLoop=1;fontSize=11;endArrow=classic;endFill=1;endSize=8;strokeWidth=1;shadow=0;labelBackgroundColor=none;strokeColor=default;entryX=0;entryY=0.5;entryDx=0;entryDy=0;exitX=1;exitY=0.5;exitDx=0;exitDy=0;" edge="1" parent="1" source="6SVooI-n990Ksr6fT-eq-2" target="6SVooI-n990Ksr6fT-eq-3">
          <mxGeometry y="10" relative="1" as="geometry">
            <mxPoint as="offset" />
            <mxPoint x="243" y="779" as="targetPoint" />
            <mxPoint x="172" y="779" as="sourcePoint" />
          </mxGeometry>
        </mxCell>
        <mxCell id="6SVooI-n990Ksr6fT-eq-5" value="" style="endArrow=classic;html=1;rounded=0;exitX=1;exitY=0.5;exitDx=0;exitDy=0;" edge="1" parent="1" source="6SVooI-n990Ksr6fT-eq-3">
          <mxGeometry width="50" height="50" relative="1" as="geometry">
            <mxPoint x="631.5" y="778.5" as="sourcePoint" />
            <mxPoint x="760" y="779" as="targetPoint" />
          </mxGeometry>
        </mxCell>
        <mxCell id="6SVooI-n990Ksr6fT-eq-41" value="if&amp;nbsp;&lt;br&gt;stage==3" style="rhombus;whiteSpace=wrap;html=1;shadow=0;fontFamily=Helvetica;fontSize=12;align=center;strokeWidth=1;spacing=6;spacingTop=-4;" vertex="1" parent="1">
          <mxGeometry x="57" y="1328" width="100" height="80" as="geometry" />
        </mxCell>
        <mxCell id="6SVooI-n990Ksr6fT-eq-42" value="No" style="rounded=0;html=1;jettySize=auto;orthogonalLoop=1;fontSize=11;endArrow=classic;endFill=1;endSize=8;strokeWidth=1;shadow=0;labelBackgroundColor=none;edgeStyle=orthogonalEdgeStyle;exitX=0.5;exitY=1;exitDx=0;exitDy=0;entryX=0.5;entryY=0;entryDx=0;entryDy=0;" edge="1" parent="1" source="6SVooI-n990Ksr6fT-eq-41" target="6SVooI-n990Ksr6fT-eq-70">
          <mxGeometry x="-0.6752" y="20" relative="1" as="geometry">
            <mxPoint as="offset" />
            <mxPoint x="107" y="1438" as="sourcePoint" />
            <mxPoint x="107" y="1645" as="targetPoint" />
            <Array as="points" />
          </mxGeometry>
        </mxCell>
        <mxCell id="6SVooI-n990Ksr6fT-eq-43" value="Yes" style="edgeStyle=orthogonalEdgeStyle;rounded=0;html=1;jettySize=auto;orthogonalLoop=1;fontSize=11;endArrow=classic;endFill=1;endSize=8;strokeWidth=1;shadow=0;labelBackgroundColor=none;strokeColor=default;exitX=1;exitY=0.5;exitDx=0;exitDy=0;entryX=0;entryY=0.5;entryDx=0;entryDy=0;" edge="1" parent="1" source="6SVooI-n990Ksr6fT-eq-41" target="6SVooI-n990Ksr6fT-eq-44">
          <mxGeometry x="-0.4634" y="-19" relative="1" as="geometry">
            <mxPoint as="offset" />
            <mxPoint x="195" y="1348" as="targetPoint" />
            <mxPoint x="167" y="1384" as="sourcePoint" />
          </mxGeometry>
        </mxCell>
        <mxCell id="6SVooI-n990Ksr6fT-eq-44" value="if &lt;br&gt;motor 1 achieved&lt;br&gt;theta 1&amp;nbsp;" style="rhombus;whiteSpace=wrap;html=1;shadow=0;fontFamily=Helvetica;fontSize=12;align=center;strokeWidth=1;spacing=6;spacingTop=-4;" vertex="1" parent="1">
          <mxGeometry x="185" y="1328" width="100" height="80" as="geometry" />
        </mxCell>
        <mxCell id="6SVooI-n990Ksr6fT-eq-45" value="No" style="rounded=0;html=1;jettySize=auto;orthogonalLoop=1;fontSize=11;endArrow=classic;endFill=1;endSize=8;strokeWidth=1;shadow=0;labelBackgroundColor=none;edgeStyle=orthogonalEdgeStyle;exitX=0.5;exitY=1;exitDx=0;exitDy=0;entryX=0.5;entryY=0;entryDx=0;entryDy=0;" edge="1" parent="1" source="6SVooI-n990Ksr6fT-eq-44" target="6SVooI-n990Ksr6fT-eq-49">
          <mxGeometry x="-0.6752" y="20" relative="1" as="geometry">
            <mxPoint as="offset" />
            <mxPoint x="235" y="1438" as="sourcePoint" />
            <mxPoint x="213" y="1448" as="targetPoint" />
            <Array as="points" />
          </mxGeometry>
        </mxCell>
        <mxCell id="6SVooI-n990Ksr6fT-eq-46" value="Yes" style="edgeStyle=orthogonalEdgeStyle;rounded=0;html=1;jettySize=auto;orthogonalLoop=1;fontSize=11;endArrow=classic;endFill=1;endSize=8;strokeWidth=1;shadow=0;labelBackgroundColor=none;strokeColor=default;exitX=1;exitY=0.5;exitDx=0;exitDy=0;entryX=0;entryY=0.5;entryDx=0;entryDy=0;" edge="1" parent="1" source="6SVooI-n990Ksr6fT-eq-44" target="6SVooI-n990Ksr6fT-eq-48">
          <mxGeometry x="-0.375" y="13" relative="1" as="geometry">
            <mxPoint as="offset" />
            <mxPoint x="323" y="1348" as="targetPoint" />
            <mxPoint x="295" y="1384" as="sourcePoint" />
          </mxGeometry>
        </mxCell>
        <mxCell id="6SVooI-n990Ksr6fT-eq-47" value="" style="edgeStyle=orthogonalEdgeStyle;rounded=0;orthogonalLoop=1;jettySize=auto;html=1;" edge="1" parent="1" source="6SVooI-n990Ksr6fT-eq-48" target="6SVooI-n990Ksr6fT-eq-50">
          <mxGeometry relative="1" as="geometry" />
        </mxCell>
        <mxCell id="6SVooI-n990Ksr6fT-eq-48" value="stop motor 1" style="shape=parallelogram;perimeter=parallelogramPerimeter;whiteSpace=wrap;html=1;fixedSize=1;" vertex="1" parent="1">
          <mxGeometry x="307" y="1353" width="120" height="30" as="geometry" />
        </mxCell>
        <mxCell id="6SVooI-n990Ksr6fT-eq-49" value="turn motor 1" style="shape=parallelogram;perimeter=parallelogramPerimeter;whiteSpace=wrap;html=1;fixedSize=1;" vertex="1" parent="1">
          <mxGeometry x="175" y="1435" width="120" height="30" as="geometry" />
        </mxCell>
        <mxCell id="6SVooI-n990Ksr6fT-eq-50" value="if &lt;br&gt;motor 2 achieved&lt;br&gt;theta 2&amp;nbsp;" style="rhombus;whiteSpace=wrap;html=1;shadow=0;fontFamily=Helvetica;fontSize=12;align=center;strokeWidth=1;spacing=6;spacingTop=-4;" vertex="1" parent="1">
          <mxGeometry x="465" y="1328" width="100" height="80" as="geometry" />
        </mxCell>
        <mxCell id="6SVooI-n990Ksr6fT-eq-51" value="No" style="rounded=0;html=1;jettySize=auto;orthogonalLoop=1;fontSize=11;endArrow=classic;endFill=1;endSize=8;strokeWidth=1;shadow=0;labelBackgroundColor=none;edgeStyle=orthogonalEdgeStyle;exitX=0.5;exitY=1;exitDx=0;exitDy=0;entryX=0.5;entryY=0;entryDx=0;entryDy=0;" edge="1" parent="1" source="6SVooI-n990Ksr6fT-eq-50" target="6SVooI-n990Ksr6fT-eq-54">
          <mxGeometry x="-0.6752" y="20" relative="1" as="geometry">
            <mxPoint as="offset" />
            <mxPoint x="515" y="1438" as="sourcePoint" />
            <mxPoint x="493" y="1448" as="targetPoint" />
            <Array as="points" />
          </mxGeometry>
        </mxCell>
        <mxCell id="6SVooI-n990Ksr6fT-eq-52" value="Yes" style="edgeStyle=orthogonalEdgeStyle;rounded=0;html=1;jettySize=auto;orthogonalLoop=1;fontSize=11;endArrow=classic;endFill=1;endSize=8;strokeWidth=1;shadow=0;labelBackgroundColor=none;strokeColor=default;exitX=1;exitY=0.5;exitDx=0;exitDy=0;entryX=0;entryY=0.5;entryDx=0;entryDy=0;" edge="1" parent="1" source="6SVooI-n990Ksr6fT-eq-50" target="6SVooI-n990Ksr6fT-eq-53">
          <mxGeometry x="-0.375" y="13" relative="1" as="geometry">
            <mxPoint as="offset" />
            <mxPoint x="603" y="1348" as="targetPoint" />
            <mxPoint x="575" y="1384" as="sourcePoint" />
          </mxGeometry>
        </mxCell>
        <mxCell id="6SVooI-n990Ksr6fT-eq-53" value="stop motor 2" style="shape=parallelogram;perimeter=parallelogramPerimeter;whiteSpace=wrap;html=1;fixedSize=1;" vertex="1" parent="1">
          <mxGeometry x="587" y="1353" width="120" height="30" as="geometry" />
        </mxCell>
        <mxCell id="6SVooI-n990Ksr6fT-eq-54" value="turn motor 2" style="shape=parallelogram;perimeter=parallelogramPerimeter;whiteSpace=wrap;html=1;fixedSize=1;" vertex="1" parent="1">
          <mxGeometry x="455" y="1435" width="120" height="30" as="geometry" />
        </mxCell>
        <mxCell id="6SVooI-n990Ksr6fT-eq-55" value="if &lt;br&gt;motor 3 achieved&lt;br&gt;theta 3&amp;nbsp;" style="rhombus;whiteSpace=wrap;html=1;shadow=0;fontFamily=Helvetica;fontSize=12;align=center;strokeWidth=1;spacing=6;spacingTop=-4;" vertex="1" parent="1">
          <mxGeometry x="185" y="1495" width="100" height="80" as="geometry" />
        </mxCell>
        <mxCell id="6SVooI-n990Ksr6fT-eq-56" value="No" style="rounded=0;html=1;jettySize=auto;orthogonalLoop=1;fontSize=11;endArrow=classic;endFill=1;endSize=8;strokeWidth=1;shadow=0;labelBackgroundColor=none;edgeStyle=orthogonalEdgeStyle;exitX=0.5;exitY=1;exitDx=0;exitDy=0;entryX=0.5;entryY=0;entryDx=0;entryDy=0;" edge="1" parent="1" source="6SVooI-n990Ksr6fT-eq-55" target="6SVooI-n990Ksr6fT-eq-60">
          <mxGeometry x="-0.6752" y="20" relative="1" as="geometry">
            <mxPoint as="offset" />
            <mxPoint x="235" y="1605" as="sourcePoint" />
            <mxPoint x="213" y="1615" as="targetPoint" />
            <Array as="points" />
          </mxGeometry>
        </mxCell>
        <mxCell id="6SVooI-n990Ksr6fT-eq-57" value="Yes" style="edgeStyle=orthogonalEdgeStyle;rounded=0;html=1;jettySize=auto;orthogonalLoop=1;fontSize=11;endArrow=classic;endFill=1;endSize=8;strokeWidth=1;shadow=0;labelBackgroundColor=none;strokeColor=default;exitX=1;exitY=0.5;exitDx=0;exitDy=0;entryX=0;entryY=0.5;entryDx=0;entryDy=0;" edge="1" parent="1" source="6SVooI-n990Ksr6fT-eq-55" target="6SVooI-n990Ksr6fT-eq-59">
          <mxGeometry x="-0.375" y="13" relative="1" as="geometry">
            <mxPoint as="offset" />
            <mxPoint x="323" y="1515" as="targetPoint" />
            <mxPoint x="295" y="1551" as="sourcePoint" />
          </mxGeometry>
        </mxCell>
        <mxCell id="6SVooI-n990Ksr6fT-eq-58" value="" style="edgeStyle=orthogonalEdgeStyle;rounded=0;orthogonalLoop=1;jettySize=auto;html=1;" edge="1" parent="1" source="6SVooI-n990Ksr6fT-eq-59" target="6SVooI-n990Ksr6fT-eq-61">
          <mxGeometry relative="1" as="geometry" />
        </mxCell>
        <mxCell id="6SVooI-n990Ksr6fT-eq-59" value="stop motor 3" style="shape=parallelogram;perimeter=parallelogramPerimeter;whiteSpace=wrap;html=1;fixedSize=1;" vertex="1" parent="1">
          <mxGeometry x="307" y="1520" width="120" height="30" as="geometry" />
        </mxCell>
        <mxCell id="6SVooI-n990Ksr6fT-eq-60" value="turn motor 3" style="shape=parallelogram;perimeter=parallelogramPerimeter;whiteSpace=wrap;html=1;fixedSize=1;" vertex="1" parent="1">
          <mxGeometry x="175" y="1602" width="120" height="30" as="geometry" />
        </mxCell>
        <mxCell id="6SVooI-n990Ksr6fT-eq-61" value="if all&lt;br&gt;motors achieved&amp;nbsp;&lt;br&gt;targets&amp;nbsp;" style="rhombus;whiteSpace=wrap;html=1;shadow=0;fontFamily=Helvetica;fontSize=12;align=center;strokeWidth=1;spacing=6;spacingTop=-4;" vertex="1" parent="1">
          <mxGeometry x="465" y="1495" width="100" height="80" as="geometry" />
        </mxCell>
        <mxCell id="6SVooI-n990Ksr6fT-eq-62" value="Yes" style="edgeStyle=orthogonalEdgeStyle;rounded=0;html=1;jettySize=auto;orthogonalLoop=1;fontSize=11;endArrow=classic;endFill=1;endSize=8;strokeWidth=1;shadow=0;labelBackgroundColor=none;strokeColor=default;exitX=1;exitY=0.5;exitDx=0;exitDy=0;entryX=0;entryY=0.5;entryDx=0;entryDy=0;" edge="1" parent="1" source="6SVooI-n990Ksr6fT-eq-61" target="6SVooI-n990Ksr6fT-eq-63">
          <mxGeometry x="-0.375" y="13" relative="1" as="geometry">
            <mxPoint as="offset" />
            <mxPoint x="603" y="1515" as="targetPoint" />
            <mxPoint x="575" y="1551" as="sourcePoint" />
          </mxGeometry>
        </mxCell>
        <mxCell id="6SVooI-n990Ksr6fT-eq-63" value="stage = 4" style="shape=parallelogram;perimeter=parallelogramPerimeter;whiteSpace=wrap;html=1;fixedSize=1;" vertex="1" parent="1">
          <mxGeometry x="587" y="1520" width="120" height="30" as="geometry" />
        </mxCell>
        <mxCell id="6SVooI-n990Ksr6fT-eq-64" value="" style="endArrow=classic;html=1;rounded=0;exitX=1;exitY=0.5;exitDx=0;exitDy=0;entryX=0;entryY=0.5;entryDx=0;entryDy=0;" edge="1" parent="1" source="6SVooI-n990Ksr6fT-eq-53" target="6SVooI-n990Ksr6fT-eq-55">
          <mxGeometry width="50" height="50" relative="1" as="geometry">
            <mxPoint x="475" y="1605" as="sourcePoint" />
            <mxPoint x="525" y="1555" as="targetPoint" />
            <Array as="points">
              <mxPoint x="725" y="1368" />
              <mxPoint x="725" y="1485" />
              <mxPoint x="165" y="1485" />
              <mxPoint x="165" y="1535" />
            </Array>
          </mxGeometry>
        </mxCell>
        <mxCell id="6SVooI-n990Ksr6fT-eq-65" value="" style="endArrow=classic;html=1;rounded=0;exitX=1;exitY=0.5;exitDx=0;exitDy=0;" edge="1" parent="1" source="6SVooI-n990Ksr6fT-eq-49">
          <mxGeometry width="50" height="50" relative="1" as="geometry">
            <mxPoint x="475" y="1605" as="sourcePoint" />
            <mxPoint x="435" y="1365" as="targetPoint" />
            <Array as="points">
              <mxPoint x="435" y="1450" />
            </Array>
          </mxGeometry>
        </mxCell>
        <mxCell id="6SVooI-n990Ksr6fT-eq-66" value="" style="endArrow=classic;html=1;rounded=0;exitX=1;exitY=0.5;exitDx=0;exitDy=0;" edge="1" parent="1" source="6SVooI-n990Ksr6fT-eq-54">
          <mxGeometry width="50" height="50" relative="1" as="geometry">
            <mxPoint x="475" y="1605" as="sourcePoint" />
            <mxPoint x="725" y="1450" as="targetPoint" />
          </mxGeometry>
        </mxCell>
        <mxCell id="6SVooI-n990Ksr6fT-eq-67" value="" style="endArrow=classic;html=1;rounded=0;exitX=1;exitY=0.5;exitDx=0;exitDy=0;" edge="1" parent="1" source="6SVooI-n990Ksr6fT-eq-60">
          <mxGeometry width="50" height="50" relative="1" as="geometry">
            <mxPoint x="475" y="1605" as="sourcePoint" />
            <mxPoint x="435" y="1535" as="targetPoint" />
            <Array as="points">
              <mxPoint x="435" y="1615" />
            </Array>
          </mxGeometry>
        </mxCell>
        <mxCell id="6SVooI-n990Ksr6fT-eq-68" value="" style="endArrow=classic;html=1;rounded=0;exitX=1;exitY=0.5;exitDx=0;exitDy=0;" edge="1" parent="1" source="6SVooI-n990Ksr6fT-eq-63">
          <mxGeometry width="50" height="50" relative="1" as="geometry">
            <mxPoint x="475" y="1605" as="sourcePoint" />
            <mxPoint x="755" y="1535" as="targetPoint" />
          </mxGeometry>
        </mxCell>
        <mxCell id="6SVooI-n990Ksr6fT-eq-69" value="No" style="rounded=0;html=1;jettySize=auto;orthogonalLoop=1;fontSize=11;endArrow=classic;endFill=1;endSize=8;strokeWidth=1;shadow=0;labelBackgroundColor=none;edgeStyle=orthogonalEdgeStyle;exitX=0.5;exitY=1;exitDx=0;exitDy=0;" edge="1" parent="1" source="6SVooI-n990Ksr6fT-eq-61">
          <mxGeometry x="-0.9812" y="-22" relative="1" as="geometry">
            <mxPoint as="offset" />
            <mxPoint x="495" y="1602" as="sourcePoint" />
            <mxPoint x="755" y="1615" as="targetPoint" />
            <Array as="points">
              <mxPoint x="515" y="1615" />
              <mxPoint x="733" y="1615" />
            </Array>
          </mxGeometry>
        </mxCell>
        <mxCell id="6SVooI-n990Ksr6fT-eq-70" value="if&amp;nbsp;&lt;br&gt;stage==4" style="rhombus;whiteSpace=wrap;html=1;shadow=0;fontFamily=Helvetica;fontSize=12;align=center;strokeWidth=1;spacing=6;spacingTop=-4;" vertex="1" parent="1">
          <mxGeometry x="57" y="1646" width="100" height="80" as="geometry" />
        </mxCell>
        <mxCell id="6SVooI-n990Ksr6fT-eq-71" value="&lt;div&gt;multiply inverse kinematics for drop point by -1&lt;/div&gt;stage = 5&lt;br&gt;stop" style="shape=parallelogram;perimeter=parallelogramPerimeter;whiteSpace=wrap;html=1;fixedSize=1;" vertex="1" parent="1">
          <mxGeometry x="303" y="1653" width="323.5" height="66" as="geometry" />
        </mxCell>
        <mxCell id="6SVooI-n990Ksr6fT-eq-72" value="Yes" style="edgeStyle=orthogonalEdgeStyle;rounded=0;html=1;jettySize=auto;orthogonalLoop=1;fontSize=11;endArrow=classic;endFill=1;endSize=8;strokeWidth=1;shadow=0;labelBackgroundColor=none;strokeColor=default;entryX=0;entryY=0.5;entryDx=0;entryDy=0;exitX=1;exitY=0.5;exitDx=0;exitDy=0;" edge="1" parent="1" source="6SVooI-n990Ksr6fT-eq-70" target="6SVooI-n990Ksr6fT-eq-71">
          <mxGeometry y="10" relative="1" as="geometry">
            <mxPoint as="offset" />
            <mxPoint x="238" y="1686" as="targetPoint" />
            <mxPoint x="167" y="1686" as="sourcePoint" />
          </mxGeometry>
        </mxCell>
        <mxCell id="6SVooI-n990Ksr6fT-eq-73" value="" style="endArrow=classic;html=1;rounded=0;exitX=1;exitY=0.5;exitDx=0;exitDy=0;" edge="1" parent="1" source="6SVooI-n990Ksr6fT-eq-71">
          <mxGeometry width="50" height="50" relative="1" as="geometry">
            <mxPoint x="626.5" y="1685.5" as="sourcePoint" />
            <mxPoint x="755" y="1686" as="targetPoint" />
          </mxGeometry>
        </mxCell>
        <mxCell id="6SVooI-n990Ksr6fT-eq-74" value="T" style="ellipse;whiteSpace=wrap;html=1;aspect=fixed;" vertex="1" parent="1">
          <mxGeometry x="97.5" y="870" width="30" height="30" as="geometry" />
        </mxCell>
        <mxCell id="6SVooI-n990Ksr6fT-eq-75" value="Yes" style="rounded=0;html=1;jettySize=auto;orthogonalLoop=1;fontSize=11;endArrow=classic;endFill=1;endSize=8;strokeWidth=1;shadow=0;labelBackgroundColor=none;edgeStyle=orthogonalEdgeStyle;exitX=0.5;exitY=1;exitDx=0;exitDy=0;entryX=0.5;entryY=0;entryDx=0;entryDy=0;" edge="1" parent="1" source="6SVooI-n990Ksr6fT-eq-2" target="6SVooI-n990Ksr6fT-eq-74">
          <mxGeometry x="-0.3333" y="18" relative="1" as="geometry">
            <mxPoint as="offset" />
            <mxPoint x="113" y="829" as="sourcePoint" />
            <mxPoint x="113" y="859" as="targetPoint" />
            <Array as="points" />
          </mxGeometry>
        </mxCell>
        <mxCell id="6SVooI-n990Ksr6fT-eq-76" value="U" style="ellipse;whiteSpace=wrap;html=1;aspect=fixed;" vertex="1" parent="1">
          <mxGeometry x="745" y="870" width="30" height="30" as="geometry" />
        </mxCell>
        <mxCell id="6SVooI-n990Ksr6fT-eq-77" value="if&amp;nbsp;&lt;br&gt;stage==5" style="rhombus;whiteSpace=wrap;html=1;shadow=0;fontFamily=Helvetica;fontSize=12;align=center;strokeWidth=1;spacing=6;spacingTop=-4;" vertex="1" parent="1">
          <mxGeometry x="57" y="1756" width="100" height="80" as="geometry" />
        </mxCell>
        <mxCell id="6SVooI-n990Ksr6fT-eq-78" value="No" style="rounded=0;html=1;jettySize=auto;orthogonalLoop=1;fontSize=11;endArrow=classic;endFill=1;endSize=8;strokeWidth=1;shadow=0;labelBackgroundColor=none;edgeStyle=orthogonalEdgeStyle;exitX=0.5;exitY=1;exitDx=0;exitDy=0;entryX=0.5;entryY=0;entryDx=0;entryDy=0;" edge="1" parent="1" source="6SVooI-n990Ksr6fT-eq-77" target="6SVooI-n990Ksr6fT-eq-106">
          <mxGeometry x="-0.6752" y="20" relative="1" as="geometry">
            <mxPoint as="offset" />
            <mxPoint x="107" y="1866" as="sourcePoint" />
            <mxPoint x="107" y="2073" as="targetPoint" />
            <Array as="points" />
          </mxGeometry>
        </mxCell>
        <mxCell id="6SVooI-n990Ksr6fT-eq-79" value="Yes" style="edgeStyle=orthogonalEdgeStyle;rounded=0;html=1;jettySize=auto;orthogonalLoop=1;fontSize=11;endArrow=classic;endFill=1;endSize=8;strokeWidth=1;shadow=0;labelBackgroundColor=none;strokeColor=default;exitX=1;exitY=0.5;exitDx=0;exitDy=0;entryX=0;entryY=0.5;entryDx=0;entryDy=0;" edge="1" parent="1" source="6SVooI-n990Ksr6fT-eq-77" target="6SVooI-n990Ksr6fT-eq-80">
          <mxGeometry x="-0.4634" y="-19" relative="1" as="geometry">
            <mxPoint as="offset" />
            <mxPoint x="195" y="1776" as="targetPoint" />
            <mxPoint x="167" y="1812" as="sourcePoint" />
          </mxGeometry>
        </mxCell>
        <mxCell id="6SVooI-n990Ksr6fT-eq-80" value="if &lt;br&gt;motor 1 achieved&lt;br&gt;theta 1&amp;nbsp;" style="rhombus;whiteSpace=wrap;html=1;shadow=0;fontFamily=Helvetica;fontSize=12;align=center;strokeWidth=1;spacing=6;spacingTop=-4;" vertex="1" parent="1">
          <mxGeometry x="185" y="1756" width="100" height="80" as="geometry" />
        </mxCell>
        <mxCell id="6SVooI-n990Ksr6fT-eq-81" value="No" style="rounded=0;html=1;jettySize=auto;orthogonalLoop=1;fontSize=11;endArrow=classic;endFill=1;endSize=8;strokeWidth=1;shadow=0;labelBackgroundColor=none;edgeStyle=orthogonalEdgeStyle;exitX=0.5;exitY=1;exitDx=0;exitDy=0;entryX=0.5;entryY=0;entryDx=0;entryDy=0;" edge="1" parent="1" source="6SVooI-n990Ksr6fT-eq-80" target="6SVooI-n990Ksr6fT-eq-85">
          <mxGeometry x="-0.6752" y="20" relative="1" as="geometry">
            <mxPoint as="offset" />
            <mxPoint x="235" y="1866" as="sourcePoint" />
            <mxPoint x="213" y="1876" as="targetPoint" />
            <Array as="points" />
          </mxGeometry>
        </mxCell>
        <mxCell id="6SVooI-n990Ksr6fT-eq-82" value="Yes" style="edgeStyle=orthogonalEdgeStyle;rounded=0;html=1;jettySize=auto;orthogonalLoop=1;fontSize=11;endArrow=classic;endFill=1;endSize=8;strokeWidth=1;shadow=0;labelBackgroundColor=none;strokeColor=default;exitX=1;exitY=0.5;exitDx=0;exitDy=0;entryX=0;entryY=0.5;entryDx=0;entryDy=0;" edge="1" parent="1" source="6SVooI-n990Ksr6fT-eq-80" target="6SVooI-n990Ksr6fT-eq-84">
          <mxGeometry x="-0.375" y="13" relative="1" as="geometry">
            <mxPoint as="offset" />
            <mxPoint x="323" y="1776" as="targetPoint" />
            <mxPoint x="295" y="1812" as="sourcePoint" />
          </mxGeometry>
        </mxCell>
        <mxCell id="6SVooI-n990Ksr6fT-eq-83" value="" style="edgeStyle=orthogonalEdgeStyle;rounded=0;orthogonalLoop=1;jettySize=auto;html=1;" edge="1" parent="1" source="6SVooI-n990Ksr6fT-eq-84" target="6SVooI-n990Ksr6fT-eq-86">
          <mxGeometry relative="1" as="geometry" />
        </mxCell>
        <mxCell id="6SVooI-n990Ksr6fT-eq-84" value="stop motor 1" style="shape=parallelogram;perimeter=parallelogramPerimeter;whiteSpace=wrap;html=1;fixedSize=1;" vertex="1" parent="1">
          <mxGeometry x="307" y="1781" width="120" height="30" as="geometry" />
        </mxCell>
        <mxCell id="6SVooI-n990Ksr6fT-eq-85" value="turn motor 1" style="shape=parallelogram;perimeter=parallelogramPerimeter;whiteSpace=wrap;html=1;fixedSize=1;" vertex="1" parent="1">
          <mxGeometry x="175" y="1863" width="120" height="30" as="geometry" />
        </mxCell>
        <mxCell id="6SVooI-n990Ksr6fT-eq-86" value="if &lt;br&gt;motor 2 achieved&lt;br&gt;theta 2&amp;nbsp;" style="rhombus;whiteSpace=wrap;html=1;shadow=0;fontFamily=Helvetica;fontSize=12;align=center;strokeWidth=1;spacing=6;spacingTop=-4;" vertex="1" parent="1">
          <mxGeometry x="465" y="1756" width="100" height="80" as="geometry" />
        </mxCell>
        <mxCell id="6SVooI-n990Ksr6fT-eq-87" value="No" style="rounded=0;html=1;jettySize=auto;orthogonalLoop=1;fontSize=11;endArrow=classic;endFill=1;endSize=8;strokeWidth=1;shadow=0;labelBackgroundColor=none;edgeStyle=orthogonalEdgeStyle;exitX=0.5;exitY=1;exitDx=0;exitDy=0;entryX=0.5;entryY=0;entryDx=0;entryDy=0;" edge="1" parent="1" source="6SVooI-n990Ksr6fT-eq-86" target="6SVooI-n990Ksr6fT-eq-90">
          <mxGeometry x="-0.6752" y="20" relative="1" as="geometry">
            <mxPoint as="offset" />
            <mxPoint x="515" y="1866" as="sourcePoint" />
            <mxPoint x="493" y="1876" as="targetPoint" />
            <Array as="points" />
          </mxGeometry>
        </mxCell>
        <mxCell id="6SVooI-n990Ksr6fT-eq-88" value="Yes" style="edgeStyle=orthogonalEdgeStyle;rounded=0;html=1;jettySize=auto;orthogonalLoop=1;fontSize=11;endArrow=classic;endFill=1;endSize=8;strokeWidth=1;shadow=0;labelBackgroundColor=none;strokeColor=default;exitX=1;exitY=0.5;exitDx=0;exitDy=0;entryX=0;entryY=0.5;entryDx=0;entryDy=0;" edge="1" parent="1" source="6SVooI-n990Ksr6fT-eq-86" target="6SVooI-n990Ksr6fT-eq-89">
          <mxGeometry x="-0.375" y="13" relative="1" as="geometry">
            <mxPoint as="offset" />
            <mxPoint x="603" y="1776" as="targetPoint" />
            <mxPoint x="575" y="1812" as="sourcePoint" />
          </mxGeometry>
        </mxCell>
        <mxCell id="6SVooI-n990Ksr6fT-eq-89" value="stop motor 2" style="shape=parallelogram;perimeter=parallelogramPerimeter;whiteSpace=wrap;html=1;fixedSize=1;" vertex="1" parent="1">
          <mxGeometry x="587" y="1781" width="120" height="30" as="geometry" />
        </mxCell>
        <mxCell id="6SVooI-n990Ksr6fT-eq-90" value="turn motor 2" style="shape=parallelogram;perimeter=parallelogramPerimeter;whiteSpace=wrap;html=1;fixedSize=1;" vertex="1" parent="1">
          <mxGeometry x="455" y="1863" width="120" height="30" as="geometry" />
        </mxCell>
        <mxCell id="6SVooI-n990Ksr6fT-eq-91" value="if &lt;br&gt;motor 3 achieved&lt;br&gt;theta 3&amp;nbsp;" style="rhombus;whiteSpace=wrap;html=1;shadow=0;fontFamily=Helvetica;fontSize=12;align=center;strokeWidth=1;spacing=6;spacingTop=-4;" vertex="1" parent="1">
          <mxGeometry x="185" y="1923" width="100" height="80" as="geometry" />
        </mxCell>
        <mxCell id="6SVooI-n990Ksr6fT-eq-92" value="No" style="rounded=0;html=1;jettySize=auto;orthogonalLoop=1;fontSize=11;endArrow=classic;endFill=1;endSize=8;strokeWidth=1;shadow=0;labelBackgroundColor=none;edgeStyle=orthogonalEdgeStyle;exitX=0.5;exitY=1;exitDx=0;exitDy=0;entryX=0.5;entryY=0;entryDx=0;entryDy=0;" edge="1" parent="1" source="6SVooI-n990Ksr6fT-eq-91" target="6SVooI-n990Ksr6fT-eq-96">
          <mxGeometry x="-0.6752" y="20" relative="1" as="geometry">
            <mxPoint as="offset" />
            <mxPoint x="235" y="2033" as="sourcePoint" />
            <mxPoint x="213" y="2043" as="targetPoint" />
            <Array as="points" />
          </mxGeometry>
        </mxCell>
        <mxCell id="6SVooI-n990Ksr6fT-eq-93" value="Yes" style="edgeStyle=orthogonalEdgeStyle;rounded=0;html=1;jettySize=auto;orthogonalLoop=1;fontSize=11;endArrow=classic;endFill=1;endSize=8;strokeWidth=1;shadow=0;labelBackgroundColor=none;strokeColor=default;exitX=1;exitY=0.5;exitDx=0;exitDy=0;entryX=0;entryY=0.5;entryDx=0;entryDy=0;" edge="1" parent="1" source="6SVooI-n990Ksr6fT-eq-91" target="6SVooI-n990Ksr6fT-eq-95">
          <mxGeometry x="-0.375" y="13" relative="1" as="geometry">
            <mxPoint as="offset" />
            <mxPoint x="323" y="1943" as="targetPoint" />
            <mxPoint x="295" y="1979" as="sourcePoint" />
          </mxGeometry>
        </mxCell>
        <mxCell id="6SVooI-n990Ksr6fT-eq-94" value="" style="edgeStyle=orthogonalEdgeStyle;rounded=0;orthogonalLoop=1;jettySize=auto;html=1;" edge="1" parent="1" source="6SVooI-n990Ksr6fT-eq-95" target="6SVooI-n990Ksr6fT-eq-97">
          <mxGeometry relative="1" as="geometry" />
        </mxCell>
        <mxCell id="6SVooI-n990Ksr6fT-eq-95" value="stop motor 3" style="shape=parallelogram;perimeter=parallelogramPerimeter;whiteSpace=wrap;html=1;fixedSize=1;" vertex="1" parent="1">
          <mxGeometry x="307" y="1948" width="120" height="30" as="geometry" />
        </mxCell>
        <mxCell id="6SVooI-n990Ksr6fT-eq-96" value="turn motor 3" style="shape=parallelogram;perimeter=parallelogramPerimeter;whiteSpace=wrap;html=1;fixedSize=1;" vertex="1" parent="1">
          <mxGeometry x="175" y="2030" width="120" height="30" as="geometry" />
        </mxCell>
        <mxCell id="6SVooI-n990Ksr6fT-eq-97" value="if all&lt;br&gt;motors achieved&amp;nbsp;&lt;br&gt;targets&amp;nbsp;" style="rhombus;whiteSpace=wrap;html=1;shadow=0;fontFamily=Helvetica;fontSize=12;align=center;strokeWidth=1;spacing=6;spacingTop=-4;" vertex="1" parent="1">
          <mxGeometry x="465" y="1923" width="100" height="80" as="geometry" />
        </mxCell>
        <mxCell id="6SVooI-n990Ksr6fT-eq-98" value="Yes" style="edgeStyle=orthogonalEdgeStyle;rounded=0;html=1;jettySize=auto;orthogonalLoop=1;fontSize=11;endArrow=classic;endFill=1;endSize=8;strokeWidth=1;shadow=0;labelBackgroundColor=none;strokeColor=default;exitX=1;exitY=0.5;exitDx=0;exitDy=0;entryX=0;entryY=0.5;entryDx=0;entryDy=0;" edge="1" parent="1" source="6SVooI-n990Ksr6fT-eq-97" target="6SVooI-n990Ksr6fT-eq-99">
          <mxGeometry x="-0.375" y="13" relative="1" as="geometry">
            <mxPoint as="offset" />
            <mxPoint x="603" y="1943" as="targetPoint" />
            <mxPoint x="575" y="1979" as="sourcePoint" />
          </mxGeometry>
        </mxCell>
        <mxCell id="6SVooI-n990Ksr6fT-eq-99" value="stage = 6" style="shape=parallelogram;perimeter=parallelogramPerimeter;whiteSpace=wrap;html=1;fixedSize=1;" vertex="1" parent="1">
          <mxGeometry x="587" y="1948" width="120" height="30" as="geometry" />
        </mxCell>
        <mxCell id="6SVooI-n990Ksr6fT-eq-100" value="" style="endArrow=classic;html=1;rounded=0;exitX=1;exitY=0.5;exitDx=0;exitDy=0;entryX=0;entryY=0.5;entryDx=0;entryDy=0;" edge="1" parent="1" source="6SVooI-n990Ksr6fT-eq-89" target="6SVooI-n990Ksr6fT-eq-91">
          <mxGeometry width="50" height="50" relative="1" as="geometry">
            <mxPoint x="475" y="2033" as="sourcePoint" />
            <mxPoint x="525" y="1983" as="targetPoint" />
            <Array as="points">
              <mxPoint x="725" y="1796" />
              <mxPoint x="725" y="1913" />
              <mxPoint x="165" y="1913" />
              <mxPoint x="165" y="1963" />
            </Array>
          </mxGeometry>
        </mxCell>
        <mxCell id="6SVooI-n990Ksr6fT-eq-101" value="" style="endArrow=classic;html=1;rounded=0;exitX=1;exitY=0.5;exitDx=0;exitDy=0;" edge="1" parent="1" source="6SVooI-n990Ksr6fT-eq-85">
          <mxGeometry width="50" height="50" relative="1" as="geometry">
            <mxPoint x="475" y="2033" as="sourcePoint" />
            <mxPoint x="435" y="1793" as="targetPoint" />
            <Array as="points">
              <mxPoint x="435" y="1878" />
            </Array>
          </mxGeometry>
        </mxCell>
        <mxCell id="6SVooI-n990Ksr6fT-eq-102" value="" style="endArrow=classic;html=1;rounded=0;exitX=1;exitY=0.5;exitDx=0;exitDy=0;" edge="1" parent="1" source="6SVooI-n990Ksr6fT-eq-90">
          <mxGeometry width="50" height="50" relative="1" as="geometry">
            <mxPoint x="475" y="2033" as="sourcePoint" />
            <mxPoint x="725" y="1878" as="targetPoint" />
          </mxGeometry>
        </mxCell>
        <mxCell id="6SVooI-n990Ksr6fT-eq-103" value="" style="endArrow=classic;html=1;rounded=0;exitX=1;exitY=0.5;exitDx=0;exitDy=0;" edge="1" parent="1" source="6SVooI-n990Ksr6fT-eq-96">
          <mxGeometry width="50" height="50" relative="1" as="geometry">
            <mxPoint x="475" y="2033" as="sourcePoint" />
            <mxPoint x="435" y="1963" as="targetPoint" />
            <Array as="points">
              <mxPoint x="435" y="2043" />
            </Array>
          </mxGeometry>
        </mxCell>
        <mxCell id="6SVooI-n990Ksr6fT-eq-104" value="" style="endArrow=classic;html=1;rounded=0;exitX=1;exitY=0.5;exitDx=0;exitDy=0;" edge="1" parent="1" source="6SVooI-n990Ksr6fT-eq-99">
          <mxGeometry width="50" height="50" relative="1" as="geometry">
            <mxPoint x="475" y="2033" as="sourcePoint" />
            <mxPoint x="755" y="1963" as="targetPoint" />
          </mxGeometry>
        </mxCell>
        <mxCell id="6SVooI-n990Ksr6fT-eq-105" value="No" style="rounded=0;html=1;jettySize=auto;orthogonalLoop=1;fontSize=11;endArrow=classic;endFill=1;endSize=8;strokeWidth=1;shadow=0;labelBackgroundColor=none;edgeStyle=orthogonalEdgeStyle;exitX=0.5;exitY=1;exitDx=0;exitDy=0;" edge="1" parent="1" source="6SVooI-n990Ksr6fT-eq-97">
          <mxGeometry x="-0.9812" y="-22" relative="1" as="geometry">
            <mxPoint as="offset" />
            <mxPoint x="495" y="2030" as="sourcePoint" />
            <mxPoint x="755" y="2043" as="targetPoint" />
            <Array as="points">
              <mxPoint x="515" y="2043" />
              <mxPoint x="733" y="2043" />
            </Array>
          </mxGeometry>
        </mxCell>
        <mxCell id="6SVooI-n990Ksr6fT-eq-106" value="if&amp;nbsp;&lt;br&gt;stage==6" style="rhombus;whiteSpace=wrap;html=1;shadow=0;fontFamily=Helvetica;fontSize=12;align=center;strokeWidth=1;spacing=6;spacingTop=-4;" vertex="1" parent="1">
          <mxGeometry x="57" y="2074" width="100" height="80" as="geometry" />
        </mxCell>
        <mxCell id="6SVooI-n990Ksr6fT-eq-108" value="NO" style="edgeStyle=orthogonalEdgeStyle;rounded=0;html=1;jettySize=auto;orthogonalLoop=1;fontSize=11;endArrow=classic;endFill=1;endSize=8;strokeWidth=1;shadow=0;labelBackgroundColor=none;strokeColor=default;exitX=1;exitY=0.5;exitDx=0;exitDy=0;" edge="1" parent="1" source="6SVooI-n990Ksr6fT-eq-106">
          <mxGeometry y="10" relative="1" as="geometry">
            <mxPoint as="offset" />
            <mxPoint x="350" y="2114" as="targetPoint" />
            <mxPoint x="167" y="2114" as="sourcePoint" />
          </mxGeometry>
        </mxCell>
        <mxCell id="6SVooI-n990Ksr6fT-eq-110" value="No" style="rounded=0;html=1;jettySize=auto;orthogonalLoop=1;fontSize=11;endArrow=classic;endFill=1;endSize=8;strokeWidth=1;shadow=0;labelBackgroundColor=none;edgeStyle=orthogonalEdgeStyle;entryX=0.5;entryY=0;entryDx=0;entryDy=0;exitX=0.5;exitY=1;exitDx=0;exitDy=0;" edge="1" parent="1" source="6SVooI-n990Ksr6fT-eq-70" target="6SVooI-n990Ksr6fT-eq-77">
          <mxGeometry x="-0.2" y="21" relative="1" as="geometry">
            <mxPoint as="offset" />
            <mxPoint x="107" y="1730" as="sourcePoint" />
            <mxPoint x="108" y="1754" as="targetPoint" />
          </mxGeometry>
        </mxCell>
      </root>
    </mxGraphModel>
  </diagram>
</mxfile>
